M48
INCH
T01C0.0150
T02C0.0400
T03C0.0300
T04C0.1181
%
T01
X+007015Y-016196
X+007000Y-018000
X+007999Y-018690
X+007995Y-016248
X+006500Y-016000
X+006500Y-018500
X+012275Y-013721
X+012275Y-016738
X+011539Y-013706
X+011539Y-017014
X+007743Y+007059
X+010312Y+007059
T02
X+014500Y-003000
X+014500Y-002000
X+014500Y-001000
X+014500Y+000000
X+014500Y+001000
X+014500Y+002000
X+014500Y+003000
X+014500Y+004000
X+004000Y-019500
X+005000Y-019500
X+006000Y-019500
X+007000Y-019500
X+008000Y-019500
X+009000Y-019500
X+010000Y-019500
X+011000Y-019500
X-001500Y-004500
X-001500Y-003500
X-001500Y-002500
X-001500Y-001500
X-001500Y-000500
X-001500Y+000500
X+000000Y-019500
X+001000Y-019500
X+002000Y-019500
X+007500Y+009000
X+008500Y+009000
X+009500Y+009000
X+010500Y+009000
X+011500Y+009000
X+012500Y+009000
X+004500Y+005000
X+004500Y+009000
X+014500Y+007920
X+014500Y+006920
X+014500Y-013000
X+014500Y-012000
X+014500Y-011000
X+014500Y-010000
X+014500Y-009000
X+014500Y-008000
X+014500Y-007000
X+014500Y-006000
X+000000Y+011000
X+001000Y+011000
X+002000Y+011000
X+012500Y-004500
X+013500Y-004500
X+014500Y-004500
X-001500Y-008500
X-001500Y-007500
X-001500Y-006500
X-001500Y+006500
X-001500Y+005500
X-001500Y+003500
X-001500Y+002500
X-000500Y+003500
X-000500Y+002500
X+001393Y+005019
X+001393Y+009019
T03
X+001000Y-011000
X-001000Y-011000
X+005500Y+010500
X+003500Y+010500
X-001000Y-015000
X-001000Y-013000
X+001000Y-013000
X+001000Y-015000
X+002000Y+002500
X+002000Y+003484
X+000000Y+008500
X-000984Y+008500
X+003000Y+005000
X+003000Y+009000
X+009500Y+005515
X+013500Y+005515
X+004500Y+004000
X+004500Y+003000
X+004500Y+002000
X+004500Y+001000
X+004500Y+000000
X+004500Y-001000
X+004500Y-002000
X+004500Y-003000
X+004500Y-004000
X+004500Y-005000
X+004500Y-006000
X+004500Y-007000
X+004500Y-008000
X+004500Y-009000
X+004500Y-010000
X+004500Y-011000
X+004500Y-012000
X+004500Y-013000
X+004500Y-014000
X+004500Y-015000
X+010500Y-015000
X+010500Y-014000
X+010500Y-013000
X+010500Y-012000
X+010500Y-011000
X+010500Y-010000
X+010500Y-009000
X+010500Y-008000
X+010500Y-007000
X+010500Y-006000
X+010500Y-005000
X+010500Y-004000
X+010500Y-003000
X+010500Y-002000
X+010500Y-001000
X+010500Y+000000
X+010500Y+001000
X+010500Y+002000
X+010500Y+003000
X+010500Y+004000
T04
X-002150Y+011320
X-002000Y-018500
X+014500Y-018500
X+014510Y+011360
M30
